<svg xmlns="http://www.w3.org/2000/svg" width="35" height="34.829" fill="currentColor" outline="inherit">
<symbol viewBox="0 0 35 34.829" id="icon-settings">
  <g id="Group_2" data-name="Group 2" transform="translate(-63 -760.086)">
    <path id="Icon_ionic-ios-settings" data-name="Icon ionic-ios-settings" d="M36.611,21.91A4.481,4.481,0,0,1,39.5,17.73a17.71,17.71,0,0,0-2.16-5.178,4.584,4.584,0,0,1-1.832.39,4.52,4.52,0,0,1-3.181-1.306,4.467,4.467,0,0,1-.93-4.987A17.849,17.849,0,0,0,26.2,4.5a4.508,4.508,0,0,1-8.4,0,17.9,17.9,0,0,0-5.2,2.149,4.454,4.454,0,0,1-.93,4.987,4.5,4.5,0,0,1-3.181,1.306,4.435,4.435,0,0,1-1.832-.39A18.1,18.1,0,0,0,4.5,17.739a4.471,4.471,0,0,1,.009,8.36,17.71,17.71,0,0,0,2.16,5.178,4.536,4.536,0,0,1,5,.925,4.468,4.468,0,0,1,.93,4.978,18.008,18.008,0,0,0,5.2,2.149,4.5,4.5,0,0,1,8.385,0,17.9,17.9,0,0,0,5.2-2.149A4.471,4.471,0,0,1,35.508,30.9a4.532,4.532,0,0,1,1.823.381,17.813,17.813,0,0,0,2.16-5.178A4.5,4.5,0,0,1,36.611,21.91ZM22.082,29.155A7.254,7.254,0,1,1,29.374,21.9,7.271,7.271,0,0,1,22.082,29.155Z" transform="translate(58.5 755.586)"/>
  </g>
  </symbol>
</svg>
