<svg xmlns="http://www.w3.org/2000/svg" width="42.14" height="27.386" fill="currentColor" outline="inherit">
  <symbol id="icon-people" viewBox="0 0 42.14 27.386">
  <g data-name="Icon ionic-ios-people" transform="translate(-2.215 -7.748)">
    <path id="Path_1" data-name="Path 1" d="M30.022,28.819c-1.051-.375-2.769-.394-3.529-.685a4.985,4.985,0,0,1-1.633-.76,10.091,10.091,0,0,1-.272-2.675,4.321,4.321,0,0,0,.929-1.314,14.6,14.6,0,0,0,.45-2.581s.619.263.863-.976c.206-1.07.6-1.633.5-2.421s-.544-.6-.544-.6.544-.8.544-3.51c0-2.8-2.112-5.547-6.063-5.547s-6.072,2.759-6.072,5.547c0,2.712.535,3.51.535,3.51s-.441-.188-.544.6.282,1.351.5,2.421c.244,1.248.863.976.863.976a14.744,14.744,0,0,0,.45,2.581,4.321,4.321,0,0,0,.929,1.314,10.091,10.091,0,0,1-.272,2.675,4.8,4.8,0,0,1-1.633.751c-.751.291-2.468.328-3.529.7a6.624,6.624,0,0,0-4.3,6.307H34.311A6.611,6.611,0,0,0,30.022,28.819Z" transform="translate(2.001 0)"/>
    <path id="Path_2" data-name="Path 2" d="M12.4,23.09s2.243-.075,3.135-.873c-1.455-2.206-.666-4.777-.967-7.18a3.96,3.96,0,0,0-4.383-3.829h-.038A3.972,3.972,0,0,0,5.8,15.037c-.3,2.393.535,5.256-.957,7.18.892.807,3.144.779,3.144.779h0a4.753,4.753,0,0,1-.094,1.577,2.37,2.37,0,0,1-1.126.516,21.777,21.777,0,0,0-2.431.676,3.952,3.952,0,0,0-2.121,3.491H9.751a6.742,6.742,0,0,1,3-2.8,6.3,6.3,0,0,1,2.318-.488s.357-.563-.817-.779a8,8,0,0,1-1.8-.629C12.276,24.357,12.4,23.09,12.4,23.09Z" transform="translate(0 1.158)"/>
    <path id="Path_3" data-name="Path 3" d="M26.943,23.09s-2.243-.075-3.135-.873c1.455-2.206.666-4.777.967-7.18a3.96,3.96,0,0,1,4.383-3.829h.038a3.972,3.972,0,0,1,4.345,3.829c.3,2.393-.535,5.256.957,7.18-.892.807-3.144.779-3.144.779h0a4.753,4.753,0,0,0,.094,1.577,2.37,2.37,0,0,0,1.126.516A21.776,21.776,0,0,1,35,25.764a3.952,3.952,0,0,1,2.121,3.491H29.589a6.742,6.742,0,0,0-3-2.8,6.3,6.3,0,0,0-2.318-.488s-.357-.563.817-.779a8,8,0,0,0,1.8-.629C27.065,24.357,26.943,23.09,26.943,23.09Z" transform="translate(7.229 1.158)"/>
  </g>
</svg>
