<svg xmlns="http://www.w3.org/2000/svg" width="35" height="28"  fill="currentColor" outline="inherit">
  <symbol id="icon-city" viewBox="0 0 35 28">
    <path d="M33.688,10.5H26.25V1.313A1.312,1.312,0,0,0,24.938,0H17.063A1.312,1.312,0,0,0,15.75,1.313V5.25h-3.5V.875A.875.875,0,0,0,11.375,0H10.5a.875.875,0,0,0-.875.875V5.25h-3.5V.875A.875.875,0,0,0,5.25,0H4.375A.875.875,0,0,0,3.5.875V5.25H1.313A1.312,1.312,0,0,0,0,6.563V26.25A1.75,1.75,0,0,0,1.75,28h31.5A1.75,1.75,0,0,0,35,26.25V11.813A1.312,1.312,0,0,0,33.688,10.5ZM7,22.094a.656.656,0,0,1-.656.656H4.156a.656.656,0,0,1-.656-.656V19.906a.656.656,0,0,1,.656-.656H6.344A.656.656,0,0,1,7,19.906Zm0-5.25a.656.656,0,0,1-.656.656H4.156a.656.656,0,0,1-.656-.656V14.656A.656.656,0,0,1,4.156,14H6.344A.656.656,0,0,1,7,14.656Zm0-5.25a.656.656,0,0,1-.656.656H4.156a.656.656,0,0,1-.656-.656V9.406a.656.656,0,0,1,.656-.656H6.344A.656.656,0,0,1,7,9.406Zm7,10.5a.656.656,0,0,1-.656.656H11.156a.656.656,0,0,1-.656-.656V19.906a.656.656,0,0,1,.656-.656h2.188a.656.656,0,0,1,.656.656Zm0-5.25a.656.656,0,0,1-.656.656H11.156a.656.656,0,0,1-.656-.656V14.656A.656.656,0,0,1,11.156,14h2.188a.656.656,0,0,1,.656.656Zm0-5.25a.656.656,0,0,1-.656.656H11.156a.656.656,0,0,1-.656-.656V9.406a.656.656,0,0,1,.656-.656h2.188A.656.656,0,0,1,14,9.406Zm8.75,5.25a.656.656,0,0,1-.656.656H19.906a.656.656,0,0,1-.656-.656V14.656A.656.656,0,0,1,19.906,14h2.188a.656.656,0,0,1,.656.656Zm0-5.25a.656.656,0,0,1-.656.656H19.906a.656.656,0,0,1-.656-.656V9.406a.656.656,0,0,1,.656-.656h2.188a.656.656,0,0,1,.656.656Zm0-5.25A.656.656,0,0,1,22.094,7H19.906a.656.656,0,0,1-.656-.656V4.156a.656.656,0,0,1,.656-.656h2.188a.656.656,0,0,1,.656.656Zm8.75,15.75a.656.656,0,0,1-.656.656H28.656A.656.656,0,0,1,28,22.094V19.906a.656.656,0,0,1,.656-.656h2.188a.656.656,0,0,1,.656.656Zm0-5.25a.656.656,0,0,1-.656.656H28.656A.656.656,0,0,1,28,16.844V14.656A.656.656,0,0,1,28.656,14h2.188a.656.656,0,0,1,.656.656Z"/>
  </symbol>
</svg>
