<svg xmlns="http://www.w3.org/2000/svg" width="35" height="35" fill="currentColor" outline="inherit">
<symbol viewBox="0 0 35 35" id="icon-reports">
  <path id="Icon_ionic-ios-list-box" data-name="Icon ionic-ios-list-box" d="M3.375,6.294V35.456a2.92,2.92,0,0,0,2.919,2.919H35.456a2.92,2.92,0,0,0,2.919-2.919V6.294a2.92,2.92,0,0,0-2.919-2.919H6.294A2.915,2.915,0,0,0,3.375,6.294Zm7.511,24.99a1.68,1.68,0,1,1,1.447-1.447A1.674,1.674,0,0,1,10.886,31.284Zm0-8.748a1.68,1.68,0,1,1,1.447-1.447A1.674,1.674,0,0,1,10.886,22.536Zm0-8.748a1.68,1.68,0,1,1,1.447-1.447A1.674,1.674,0,0,1,10.886,13.788ZM31.7,30.8H16.556a1.181,1.181,0,0,1-1.178-1.178h0a1.181,1.181,0,0,1,1.178-1.178H31.7a1.181,1.181,0,0,1,1.178,1.178h0A1.181,1.181,0,0,1,31.7,30.8Zm0-8.748H16.556a1.181,1.181,0,0,1-1.178-1.178h0a1.181,1.181,0,0,1,1.178-1.178H31.7a1.181,1.181,0,0,1,1.178,1.178h0A1.181,1.181,0,0,1,31.7,22.048Zm0-8.748H16.556a1.181,1.181,0,0,1-1.178-1.178h0a1.181,1.181,0,0,1,1.178-1.178H31.7a1.181,1.181,0,0,1,1.178,1.178h0A1.181,1.181,0,0,1,31.7,13.3Z" transform="translate(-3.375 -3.375)"/>
</symbol>
</svg>
