<svg xmlns="http://www.w3.org/2000/svg" width="194.433" height="194.43" viewBox="0 0 194.433 194.43">
  <path id="icon-qrcode" d="M63.331,14.08H14.723V62.687H63.331ZM75.483,1.928V74.839H2.571V1.928Zm-48.608,24.3h24.3v24.3h-24.3ZM184.852,14.08H136.243V62.687h48.608ZM197,1.928V74.839H124.091V1.928H197ZM148.4,26.232h24.3v24.3H148.4ZM63.331,135.6H14.723v48.607H63.331Zm12.152-12.152v72.911H2.571V123.447Zm-48.608,24.3h24.3v24.3h-24.3ZM87.635,1.928H99.787V14.08H87.635ZM99.787,14.08h12.152V26.232H99.787ZM87.635,26.232H99.787V38.384H87.635ZM99.787,38.384h12.152V50.536H99.787ZM87.635,50.536H99.787V62.687H87.635ZM99.787,62.687h12.152V74.839H99.787ZM87.635,74.839H99.787V86.991H87.635Zm0,24.3H99.787v12.152H87.635Zm12.152,12.152h12.152v12.152H99.787ZM87.635,123.447H99.787V135.6H87.635ZM99.787,135.6h12.152v12.152H99.787ZM87.635,147.751H99.787V159.9H87.635ZM99.787,159.9h12.152v12.152H99.787ZM87.635,172.054H99.787v12.152H87.635Zm12.152,12.152h12.152v12.152H99.787Zm85.064-85.063H197v12.152H184.852Zm-170.129,0H26.875v12.152H14.723ZM26.875,86.991H39.027V99.143H26.875Zm-24.3,0H14.723V99.143H2.571Zm48.608,0H63.331V99.143H51.179ZM63.331,99.143H75.483v12.152H63.331ZM75.483,86.991H87.635V99.143H75.483Zm36.456,12.152h12.152v12.152H111.939Zm12.152-12.152h12.152V99.143H124.091Zm12.152,12.152H148.4v12.152H136.244ZM148.4,86.991h12.152V99.143H148.4Zm12.152,12.152H172.7v12.152H160.548ZM172.7,86.991h12.152V99.143H172.7Zm12.152,36.456H197V135.6H184.852Zm-72.912,0h12.152V135.6H111.939Zm12.152-12.152h12.152v12.152H124.091Zm12.152,12.152H148.4V135.6H136.244Zm24.3,0H172.7V135.6H160.548ZM172.7,111.295h12.152v12.152H172.7Zm12.152,36.456H197V159.9H184.852Zm-72.912,0h12.152V159.9H111.939ZM124.091,135.6h12.152v12.152H124.091Zm24.3,0h12.152v12.152H148.4Zm12.152,12.152H172.7V159.9H160.548ZM172.7,135.6h12.152v12.152H172.7Zm12.152,36.456H197v12.152H184.852ZM124.091,159.9h12.152v12.152H124.091Zm12.152,12.152H148.4v12.152H136.244ZM148.4,159.9h12.152v12.152H148.4Zm12.152,12.152H172.7v12.152H160.548Zm-36.456,12.152h12.152v12.152H124.091Zm24.3,0h12.152v12.152H148.4Zm24.3,0h12.152v12.152H172.7Z" transform="translate(-2.571 -1.928)" fill="#a2a2a2"/>
</svg>
